<?xml version="1.0" encoding="UTF-8" standalone="no"?>
<!DOCTYPE svg PUBLIC "-//W3C//DTD SVG 1.1//EN"
 "http://www.w3.org/Graphics/SVG/1.1/DTD/svg11.dtd">
<!-- Generated by graphviz version 13.1.0 (20250701.0955)
 -->
<!-- Title: bh1750fvi_shot_init Pages: 1 -->
<svg width="309pt" height="518pt"
 viewBox="0.00 0.00 309.00 518.00" xmlns="http://www.w3.org/2000/svg" xmlns:xlink="http://www.w3.org/1999/xlink">
<g id="graph0" class="graph" transform="scale(1 1) rotate(0) translate(4 514)">
<title>bh1750fvi_shot_init</title>
<!-- Node1 -->
<g id="Node000001" class="node">
<title>Node1</title>
<g id="a_Node000001"><a xlink:title="shot example init">
<polygon fill="#999999" stroke="#666666" points="100,-253 0,-253 0,-233 100,-233 100,-253"/>
<text xml:space="preserve" text-anchor="middle" x="50" y="-239.5" font-family="Helvetica,sans-Serif" font-size="10.00">bh1750fvi_shot_init</text>
</a>
</g>
</g>
<!-- Node2 -->
<g id="Node000002" class="node">
<title>Node2</title>
<g id="a_Node000002"><a xlink:href="group__bh1750fvi__basic__driver.html#ga1c4bc4a8433e63a69bf3dd37d40a2a72" target="_top" xlink:title="close the chip">
<polygon fill="white" stroke="#666666" points="261.88,-510 175.38,-510 175.38,-490 261.88,-490 261.88,-510"/>
<text xml:space="preserve" text-anchor="middle" x="218.62" y="-496.5" font-family="Helvetica,sans-Serif" font-size="10.00">bh1750fvi_deinit</text>
</a>
</g>
</g>
<!-- Node1&#45;&gt;Node2 -->
<g id="edge1_Node000001_Node000002" class="edge">
<title>Node1&#45;&gt;Node2</title>
<g id="a_edge1_Node000001_Node000002"><a xlink:title=" ">
<path fill="none" stroke="#63b8ff" d="M51.37,-253.48C53.27,-290.68 64.94,-417.63 136,-481 143.82,-487.97 153.69,-492.52 163.84,-495.47"/>
<polygon fill="#63b8ff" stroke="#63b8ff" points="162.88,-498.83 173.42,-497.72 164.48,-492.02 162.88,-498.83"/>
</a>
</g>
</g>
<!-- Node3 -->
<g id="Node000003" class="node">
<title>Node3</title>
<g id="a_Node000003"><a xlink:href="group__bh1750fvi__basic__driver.html#ga9c988e54ebedabbe22afc6bd686c71aa" target="_top" xlink:title="initialize the chip">
<polygon fill="white" stroke="#666666" points="256.62,-472 180.62,-472 180.62,-452 256.62,-452 256.62,-472"/>
<text xml:space="preserve" text-anchor="middle" x="218.62" y="-458.5" font-family="Helvetica,sans-Serif" font-size="10.00">bh1750fvi_init</text>
</a>
</g>
</g>
<!-- Node1&#45;&gt;Node3 -->
<g id="edge2_Node000001_Node000003" class="edge">
<title>Node1&#45;&gt;Node3</title>
<g id="a_edge2_Node000001_Node000003"><a xlink:title=" ">
<path fill="none" stroke="#63b8ff" d="M52.12,-253.19C56.32,-286.2 74.19,-391.06 136,-443 145.29,-450.8 157.18,-455.54 169,-458.38"/>
<polygon fill="#63b8ff" stroke="#63b8ff" points="168.25,-461.8 178.73,-460.27 169.58,-454.93 168.25,-461.8"/>
</a>
</g>
</g>
<!-- Node4 -->
<g id="Node000004" class="node">
<title>Node4</title>
<g id="a_Node000004"><a xlink:href="group__bh1750fvi__interface__driver.html#gafdd773c72f39d40eaf28b7532bf4ded3" target="_top" xlink:title="interface print format data">
<polygon fill="white" stroke="#666666" points="269,-434 168.25,-434 168.25,-402 269,-402 269,-434"/>
<text xml:space="preserve" text-anchor="start" x="176.25" y="-420.5" font-family="Helvetica,sans-Serif" font-size="10.00">bh1750fvi_interface</text>
<text xml:space="preserve" text-anchor="middle" x="218.62" y="-408.5" font-family="Helvetica,sans-Serif" font-size="10.00">_debug_print</text>
</a>
</g>
</g>
<!-- Node1&#45;&gt;Node4 -->
<g id="edge3_Node000001_Node000004" class="edge">
<title>Node1&#45;&gt;Node4</title>
<g id="a_edge3_Node000001_Node000004"><a xlink:title=" ">
<path fill="none" stroke="#63b8ff" d="M53.84,-253.12C61.93,-280.08 87.68,-354.22 136,-393 142.36,-398.1 149.75,-402.17 157.44,-405.4"/>
<polygon fill="#63b8ff" stroke="#63b8ff" points="156.03,-408.61 166.62,-408.8 158.46,-402.05 156.03,-408.61"/>
</a>
</g>
</g>
<!-- Node5 -->
<g id="Node000005" class="node">
<title>Node5</title>
<g id="a_Node000005"><a xlink:href="group__bh1750fvi__interface__driver.html#ga1962f26ad97902a5890db515348ac161" target="_top" xlink:title="interface delay ms">
<polygon fill="white" stroke="#666666" points="269,-384 168.25,-384 168.25,-352 269,-352 269,-384"/>
<text xml:space="preserve" text-anchor="start" x="176.25" y="-370.5" font-family="Helvetica,sans-Serif" font-size="10.00">bh1750fvi_interface</text>
<text xml:space="preserve" text-anchor="middle" x="218.62" y="-358.5" font-family="Helvetica,sans-Serif" font-size="10.00">_delay_ms</text>
</a>
</g>
</g>
<!-- Node1&#45;&gt;Node5 -->
<g id="edge4_Node000001_Node000005" class="edge">
<title>Node1&#45;&gt;Node5</title>
<g id="a_edge4_Node000001_Node000005"><a xlink:title=" ">
<path fill="none" stroke="#63b8ff" d="M57.04,-253.48C69.3,-273.81 99.07,-318.71 136,-343 142.56,-347.32 149.91,-350.92 157.43,-353.92"/>
<polygon fill="#63b8ff" stroke="#63b8ff" points="156.11,-357.16 166.7,-357.25 158.47,-350.57 156.11,-357.16"/>
</a>
</g>
</g>
<!-- Node6 -->
<g id="Node000006" class="node">
<title>Node6</title>
<g id="a_Node000006"><a xlink:href="group__bh1750fvi__interface__driver.html#ga3b4f278a76db3dd1e034e921de56daed" target="_top" xlink:title="interface iic bus deinit">
<polygon fill="white" stroke="#666666" points="269,-334 168.25,-334 168.25,-302 269,-302 269,-334"/>
<text xml:space="preserve" text-anchor="start" x="176.25" y="-320.5" font-family="Helvetica,sans-Serif" font-size="10.00">bh1750fvi_interface</text>
<text xml:space="preserve" text-anchor="middle" x="218.62" y="-308.5" font-family="Helvetica,sans-Serif" font-size="10.00">_iic_deinit</text>
</a>
</g>
</g>
<!-- Node1&#45;&gt;Node6 -->
<g id="edge5_Node000001_Node000006" class="edge">
<title>Node1&#45;&gt;Node6</title>
<g id="a_edge5_Node000001_Node000006"><a xlink:title=" ">
<path fill="none" stroke="#63b8ff" d="M66.09,-253.35C82.64,-264.35 110.3,-281.69 136,-293 142.84,-296.01 150.14,-298.8 157.47,-301.34"/>
<polygon fill="#63b8ff" stroke="#63b8ff" points="156.14,-304.59 166.73,-304.42 158.34,-297.95 156.14,-304.59"/>
</a>
</g>
</g>
<!-- Node7 -->
<g id="Node000007" class="node">
<title>Node7</title>
<g id="a_Node000007"><a xlink:href="group__bh1750fvi__interface__driver.html#ga5ac20e428fbe6a7ddf0258d3c129bea9" target="_top" xlink:title="interface iic bus init">
<polygon fill="white" stroke="#666666" points="269,-284 168.25,-284 168.25,-252 269,-252 269,-284"/>
<text xml:space="preserve" text-anchor="start" x="176.25" y="-270.5" font-family="Helvetica,sans-Serif" font-size="10.00">bh1750fvi_interface</text>
<text xml:space="preserve" text-anchor="middle" x="218.62" y="-258.5" font-family="Helvetica,sans-Serif" font-size="10.00">_iic_init</text>
</a>
</g>
</g>
<!-- Node1&#45;&gt;Node7 -->
<g id="edge6_Node000001_Node000007" class="edge">
<title>Node1&#45;&gt;Node7</title>
<g id="a_edge6_Node000001_Node000007"><a xlink:title=" ">
<path fill="none" stroke="#63b8ff" d="M100.09,-250.37C117.82,-253.03 138.05,-256.06 156.67,-258.85"/>
<polygon fill="#63b8ff" stroke="#63b8ff" points="156.11,-262.31 166.52,-260.33 157.15,-255.39 156.11,-262.31"/>
</a>
</g>
</g>
<!-- Node8 -->
<g id="Node000008" class="node">
<title>Node8</title>
<g id="a_Node000008"><a xlink:href="group__bh1750fvi__interface__driver.html#ga706a2f732dddc3d78a26c56733825bd0" target="_top" xlink:title="interface iic bus read command">
<polygon fill="white" stroke="#666666" points="269,-234 168.25,-234 168.25,-202 269,-202 269,-234"/>
<text xml:space="preserve" text-anchor="start" x="176.25" y="-220.5" font-family="Helvetica,sans-Serif" font-size="10.00">bh1750fvi_interface</text>
<text xml:space="preserve" text-anchor="middle" x="218.62" y="-208.5" font-family="Helvetica,sans-Serif" font-size="10.00">_iic_read_cmd</text>
</a>
</g>
</g>
<!-- Node1&#45;&gt;Node8 -->
<g id="edge7_Node000001_Node000008" class="edge">
<title>Node1&#45;&gt;Node8</title>
<g id="a_edge7_Node000001_Node000008"><a xlink:title=" ">
<path fill="none" stroke="#63b8ff" d="M100.09,-235.63C117.82,-232.97 138.05,-229.94 156.67,-227.15"/>
<polygon fill="#63b8ff" stroke="#63b8ff" points="157.15,-230.61 166.52,-225.67 156.11,-223.69 157.15,-230.61"/>
</a>
</g>
</g>
<!-- Node9 -->
<g id="Node000009" class="node">
<title>Node9</title>
<g id="a_Node000009"><a xlink:href="group__bh1750fvi__interface__driver.html#ga55270d4921ee36e93afe960a6422d712" target="_top" xlink:title="interface iic bus write command">
<polygon fill="white" stroke="#666666" points="269,-184 168.25,-184 168.25,-152 269,-152 269,-184"/>
<text xml:space="preserve" text-anchor="start" x="176.25" y="-170.5" font-family="Helvetica,sans-Serif" font-size="10.00">bh1750fvi_interface</text>
<text xml:space="preserve" text-anchor="middle" x="218.62" y="-158.5" font-family="Helvetica,sans-Serif" font-size="10.00">_iic_write_cmd</text>
</a>
</g>
</g>
<!-- Node1&#45;&gt;Node9 -->
<g id="edge8_Node000001_Node000009" class="edge">
<title>Node1&#45;&gt;Node9</title>
<g id="a_edge8_Node000001_Node000009"><a xlink:title=" ">
<path fill="none" stroke="#63b8ff" d="M66.09,-232.65C82.64,-221.65 110.3,-204.31 136,-193 142.84,-189.99 150.14,-187.2 157.47,-184.66"/>
<polygon fill="#63b8ff" stroke="#63b8ff" points="158.34,-188.05 166.73,-181.58 156.14,-181.41 158.34,-188.05"/>
</a>
</g>
</g>
<!-- Node10 -->
<g id="Node000010" class="node">
<title>Node10</title>
<g id="a_Node000010"><a xlink:href="group__bh1750fvi__basic__driver.html#ga99933e3e581c51897834ec4fb3296e43" target="_top" xlink:title="power on">
<polygon fill="white" stroke="#666666" points="271.25,-134 166,-134 166,-114 271.25,-114 271.25,-134"/>
<text xml:space="preserve" text-anchor="middle" x="218.62" y="-120.5" font-family="Helvetica,sans-Serif" font-size="10.00">bh1750fvi_power_on</text>
</a>
</g>
</g>
<!-- Node1&#45;&gt;Node10 -->
<g id="edge9_Node000001_Node000010" class="edge">
<title>Node1&#45;&gt;Node10</title>
<g id="a_edge9_Node000001_Node000010"><a xlink:title=" ">
<path fill="none" stroke="#63b8ff" d="M56.72,-232.61C68.6,-212.04 98.06,-166.13 136,-143 141.87,-139.42 148.35,-136.52 155.02,-134.16"/>
<polygon fill="#63b8ff" stroke="#63b8ff" points="155.64,-137.63 164.15,-131.33 153.57,-130.95 155.64,-137.63"/>
</a>
</g>
</g>
<!-- Node11 -->
<g id="Node000011" class="node">
<title>Node11</title>
<g id="a_Node000011"><a xlink:href="group__bh1750fvi__basic__driver.html#ga712582b3585285c42c51dc8ff16e7278" target="_top" xlink:title="set the address pin">
<polygon fill="white" stroke="#666666" points="278,-96 159.25,-96 159.25,-76 278,-76 278,-96"/>
<text xml:space="preserve" text-anchor="middle" x="218.62" y="-82.5" font-family="Helvetica,sans-Serif" font-size="10.00">bh1750fvi_set_addr_pin</text>
</a>
</g>
</g>
<!-- Node1&#45;&gt;Node11 -->
<g id="edge10_Node000001_Node000011" class="edge">
<title>Node1&#45;&gt;Node11</title>
<g id="a_edge10_Node000001_Node000011"><a xlink:title=" ">
<path fill="none" stroke="#63b8ff" d="M54.2,-232.76C62.84,-206.92 89.18,-138.69 136,-105 139.85,-102.23 144.05,-99.85 148.44,-97.82"/>
<polygon fill="#63b8ff" stroke="#63b8ff" points="149.54,-101.15 157.56,-94.23 146.97,-94.64 149.54,-101.15"/>
</a>
</g>
</g>
<!-- Node12 -->
<g id="Node000012" class="node">
<title>Node12</title>
<g id="a_Node000012"><a xlink:href="group__bh1750fvi__basic__driver.html#ga588af50cf3ac2196db748ec54ef4646f" target="_top" xlink:title="set the measurement time">
<polygon fill="white" stroke="#666666" points="301.25,-58 136,-58 136,-38 301.25,-38 301.25,-58"/>
<text xml:space="preserve" text-anchor="middle" x="218.62" y="-44.5" font-family="Helvetica,sans-Serif" font-size="10.00">bh1750fvi_set_measurement_time</text>
</a>
</g>
</g>
<!-- Node1&#45;&gt;Node12 -->
<g id="edge11_Node000001_Node000012" class="edge">
<title>Node1&#45;&gt;Node12</title>
<g id="a_edge11_Node000001_Node000012"><a xlink:title=" ">
<path fill="none" stroke="#63b8ff" d="M52.77,-232.74C58.6,-202.29 80.09,-111.73 136,-67 137.35,-65.92 138.75,-64.9 140.19,-63.94"/>
<polygon fill="#63b8ff" stroke="#63b8ff" points="141.88,-67 148.93,-59.09 138.49,-60.88 141.88,-67"/>
</a>
</g>
</g>
<!-- Node13 -->
<g id="Node000013" class="node">
<title>Node13</title>
<g id="a_Node000013"><a xlink:href="group__bh1750fvi__basic__driver.html#gaf5afae64b65ba3dc98f7098b9e560106" target="_top" xlink:title="set the mode">
<polygon fill="white" stroke="#666666" points="271.62,-20 165.62,-20 165.62,0 271.62,0 271.62,-20"/>
<text xml:space="preserve" text-anchor="middle" x="218.62" y="-6.5" font-family="Helvetica,sans-Serif" font-size="10.00">bh1750fvi_set_mode</text>
</a>
</g>
</g>
<!-- Node1&#45;&gt;Node13 -->
<g id="edge12_Node000001_Node000013" class="edge">
<title>Node1&#45;&gt;Node13</title>
<g id="a_edge12_Node000001_Node000013"><a xlink:title=" ">
<path fill="none" stroke="#63b8ff" d="M51.83,-232.61C55.18,-197.9 70.86,-85.07 136,-29 141.43,-24.33 147.79,-20.75 154.51,-18.02"/>
<polygon fill="#63b8ff" stroke="#63b8ff" points="155.52,-21.37 163.88,-14.87 153.29,-14.74 155.52,-21.37"/>
</a>
</g>
</g>
</g>
</svg>
