<?xml version="1.0" encoding="UTF-8" standalone="no"?>
<!DOCTYPE svg PUBLIC "-//W3C//DTD SVG 1.1//EN"
 "http://www.w3.org/Graphics/SVG/1.1/DTD/svg11.dtd">
<!-- Generated by graphviz version 13.1.0 (20250701.0955)
 -->
<!-- Title: bh1750fvi_basic_init Pages: 1 -->
<svg width="314pt" height="556pt"
 viewBox="0.00 0.00 314.00 556.00" xmlns="http://www.w3.org/2000/svg" xmlns:xlink="http://www.w3.org/1999/xlink">
<g id="graph0" class="graph" transform="scale(1 1) rotate(0) translate(4 552)">
<title>bh1750fvi_basic_init</title>
<!-- Node1 -->
<g id="Node000001" class="node">
<title>Node1</title>
<g id="a_Node000001"><a xlink:title="basic example init">
<polygon fill="#999999" stroke="#666666" points="104.5,-266 0,-266 0,-246 104.5,-246 104.5,-266"/>
<text xml:space="preserve" text-anchor="middle" x="52.25" y="-252.5" font-family="Helvetica,sans-Serif" font-size="10.00">bh1750fvi_basic_init</text>
</a>
</g>
</g>
<!-- Node2 -->
<g id="Node000002" class="node">
<title>Node2</title>
<g id="a_Node000002"><a xlink:href="group__bh1750fvi__basic__driver.html#ga1c4bc4a8433e63a69bf3dd37d40a2a72" target="_top" xlink:title="close the chip">
<polygon fill="white" stroke="#666666" points="266.38,-548 179.88,-548 179.88,-528 266.38,-528 266.38,-548"/>
<text xml:space="preserve" text-anchor="middle" x="223.12" y="-534.5" font-family="Helvetica,sans-Serif" font-size="10.00">bh1750fvi_deinit</text>
</a>
</g>
</g>
<!-- Node1&#45;&gt;Node2 -->
<g id="edge1_Node000001_Node000002" class="edge">
<title>Node1&#45;&gt;Node2</title>
<g id="a_edge1_Node000001_Node000002"><a xlink:title=" ">
<path fill="none" stroke="#63b8ff" d="M53.31,-266.44C54.15,-306 62.67,-447.99 140.5,-519 148.31,-526.13 158.27,-530.74 168.53,-533.69"/>
<polygon fill="#63b8ff" stroke="#63b8ff" points="167.68,-537.09 178.21,-535.94 169.26,-530.27 167.68,-537.09"/>
</a>
</g>
</g>
<!-- Node3 -->
<g id="Node000003" class="node">
<title>Node3</title>
<g id="a_Node000003"><a xlink:href="group__bh1750fvi__basic__driver.html#ga9c988e54ebedabbe22afc6bd686c71aa" target="_top" xlink:title="initialize the chip">
<polygon fill="white" stroke="#666666" points="261.12,-510 185.12,-510 185.12,-490 261.12,-490 261.12,-510"/>
<text xml:space="preserve" text-anchor="middle" x="223.12" y="-496.5" font-family="Helvetica,sans-Serif" font-size="10.00">bh1750fvi_init</text>
</a>
</g>
</g>
<!-- Node1&#45;&gt;Node3 -->
<g id="edge2_Node000001_Node000003" class="edge">
<title>Node1&#45;&gt;Node3</title>
<g id="a_edge2_Node000001_Node000003"><a xlink:title=" ">
<path fill="none" stroke="#63b8ff" d="M53.97,-266.42C57.03,-302.28 72.15,-421.68 140.5,-481 149.84,-489.1 161.97,-493.92 174.02,-496.74"/>
<polygon fill="#63b8ff" stroke="#63b8ff" points="173.01,-500.11 183.48,-498.53 174.3,-493.23 173.01,-500.11"/>
</a>
</g>
</g>
<!-- Node4 -->
<g id="Node000004" class="node">
<title>Node4</title>
<g id="a_Node000004"><a xlink:href="group__bh1750fvi__interface__driver.html#gafdd773c72f39d40eaf28b7532bf4ded3" target="_top" xlink:title="interface print format data">
<polygon fill="white" stroke="#666666" points="273.5,-472 172.75,-472 172.75,-440 273.5,-440 273.5,-472"/>
<text xml:space="preserve" text-anchor="start" x="180.75" y="-458.5" font-family="Helvetica,sans-Serif" font-size="10.00">bh1750fvi_interface</text>
<text xml:space="preserve" text-anchor="middle" x="223.12" y="-446.5" font-family="Helvetica,sans-Serif" font-size="10.00">_debug_print</text>
</a>
</g>
</g>
<!-- Node1&#45;&gt;Node4 -->
<g id="edge3_Node000001_Node000004" class="edge">
<title>Node1&#45;&gt;Node4</title>
<g id="a_edge3_Node000001_Node000004"><a xlink:title=" ">
<path fill="none" stroke="#63b8ff" d="M55.42,-266.46C62.24,-296.68 86.1,-384.92 140.5,-431 146.72,-436.27 154.04,-440.43 161.69,-443.71"/>
<polygon fill="#63b8ff" stroke="#63b8ff" points="160.25,-446.91 170.84,-447.13 162.7,-440.35 160.25,-446.91"/>
</a>
</g>
</g>
<!-- Node5 -->
<g id="Node000005" class="node">
<title>Node5</title>
<g id="a_Node000005"><a xlink:href="group__bh1750fvi__interface__driver.html#ga1962f26ad97902a5890db515348ac161" target="_top" xlink:title="interface delay ms">
<polygon fill="white" stroke="#666666" points="273.5,-422 172.75,-422 172.75,-390 273.5,-390 273.5,-422"/>
<text xml:space="preserve" text-anchor="start" x="180.75" y="-408.5" font-family="Helvetica,sans-Serif" font-size="10.00">bh1750fvi_interface</text>
<text xml:space="preserve" text-anchor="middle" x="223.12" y="-396.5" font-family="Helvetica,sans-Serif" font-size="10.00">_delay_ms</text>
</a>
</g>
</g>
<!-- Node1&#45;&gt;Node5 -->
<g id="edge4_Node000001_Node000005" class="edge">
<title>Node1&#45;&gt;Node5</title>
<g id="a_edge4_Node000001_Node000005"><a xlink:title=" ">
<path fill="none" stroke="#63b8ff" d="M57.65,-266.49C68.23,-290.49 97.5,-349.69 140.5,-381 146.93,-385.68 154.26,-389.5 161.82,-392.61"/>
<polygon fill="#63b8ff" stroke="#63b8ff" points="160.58,-395.89 171.18,-396.04 162.99,-389.31 160.58,-395.89"/>
</a>
</g>
</g>
<!-- Node6 -->
<g id="Node000006" class="node">
<title>Node6</title>
<g id="a_Node000006"><a xlink:href="group__bh1750fvi__interface__driver.html#ga3b4f278a76db3dd1e034e921de56daed" target="_top" xlink:title="interface iic bus deinit">
<polygon fill="white" stroke="#666666" points="273.5,-372 172.75,-372 172.75,-340 273.5,-340 273.5,-372"/>
<text xml:space="preserve" text-anchor="start" x="180.75" y="-358.5" font-family="Helvetica,sans-Serif" font-size="10.00">bh1750fvi_interface</text>
<text xml:space="preserve" text-anchor="middle" x="223.12" y="-346.5" font-family="Helvetica,sans-Serif" font-size="10.00">_iic_deinit</text>
</a>
</g>
</g>
<!-- Node1&#45;&gt;Node6 -->
<g id="edge5_Node000001_Node000006" class="edge">
<title>Node1&#45;&gt;Node6</title>
<g id="a_edge5_Node000001_Node000006"><a xlink:title=" ">
<path fill="none" stroke="#63b8ff" d="M62.43,-266.25C77.32,-282.28 108.31,-313.26 140.5,-331 147.13,-334.65 154.36,-337.84 161.69,-340.61"/>
<polygon fill="#63b8ff" stroke="#63b8ff" points="160.42,-343.87 171.01,-343.87 162.73,-337.26 160.42,-343.87"/>
</a>
</g>
</g>
<!-- Node7 -->
<g id="Node000007" class="node">
<title>Node7</title>
<g id="a_Node000007"><a xlink:href="group__bh1750fvi__interface__driver.html#ga5ac20e428fbe6a7ddf0258d3c129bea9" target="_top" xlink:title="interface iic bus init">
<polygon fill="white" stroke="#666666" points="273.5,-322 172.75,-322 172.75,-290 273.5,-290 273.5,-322"/>
<text xml:space="preserve" text-anchor="start" x="180.75" y="-308.5" font-family="Helvetica,sans-Serif" font-size="10.00">bh1750fvi_interface</text>
<text xml:space="preserve" text-anchor="middle" x="223.12" y="-296.5" font-family="Helvetica,sans-Serif" font-size="10.00">_iic_init</text>
</a>
</g>
</g>
<!-- Node1&#45;&gt;Node7 -->
<g id="edge6_Node000001_Node000007" class="edge">
<title>Node1&#45;&gt;Node7</title>
<g id="a_edge6_Node000001_Node000007"><a xlink:title=" ">
<path fill="none" stroke="#63b8ff" d="M88.65,-266.48C109.7,-272.71 136.98,-280.79 161.38,-288.02"/>
<polygon fill="#63b8ff" stroke="#63b8ff" points="160.33,-291.35 170.91,-290.84 162.31,-284.64 160.33,-291.35"/>
</a>
</g>
</g>
<!-- Node8 -->
<g id="Node000008" class="node">
<title>Node8</title>
<g id="a_Node000008"><a xlink:href="group__bh1750fvi__interface__driver.html#ga706a2f732dddc3d78a26c56733825bd0" target="_top" xlink:title="interface iic bus read command">
<polygon fill="white" stroke="#666666" points="273.5,-272 172.75,-272 172.75,-240 273.5,-240 273.5,-272"/>
<text xml:space="preserve" text-anchor="start" x="180.75" y="-258.5" font-family="Helvetica,sans-Serif" font-size="10.00">bh1750fvi_interface</text>
<text xml:space="preserve" text-anchor="middle" x="223.12" y="-246.5" font-family="Helvetica,sans-Serif" font-size="10.00">_iic_read_cmd</text>
</a>
</g>
</g>
<!-- Node1&#45;&gt;Node8 -->
<g id="edge7_Node000001_Node000008" class="edge">
<title>Node1&#45;&gt;Node8</title>
<g id="a_edge7_Node000001_Node000008"><a xlink:title=" ">
<path fill="none" stroke="#63b8ff" d="M104.84,-256C122.5,-256 142.45,-256 160.81,-256"/>
<polygon fill="#63b8ff" stroke="#63b8ff" points="160.79,-259.5 170.79,-256 160.79,-252.5 160.79,-259.5"/>
</a>
</g>
</g>
<!-- Node9 -->
<g id="Node000009" class="node">
<title>Node9</title>
<g id="a_Node000009"><a xlink:href="group__bh1750fvi__interface__driver.html#ga55270d4921ee36e93afe960a6422d712" target="_top" xlink:title="interface iic bus write command">
<polygon fill="white" stroke="#666666" points="273.5,-222 172.75,-222 172.75,-190 273.5,-190 273.5,-222"/>
<text xml:space="preserve" text-anchor="start" x="180.75" y="-208.5" font-family="Helvetica,sans-Serif" font-size="10.00">bh1750fvi_interface</text>
<text xml:space="preserve" text-anchor="middle" x="223.12" y="-196.5" font-family="Helvetica,sans-Serif" font-size="10.00">_iic_write_cmd</text>
</a>
</g>
</g>
<!-- Node1&#45;&gt;Node9 -->
<g id="edge8_Node000001_Node000009" class="edge">
<title>Node1&#45;&gt;Node9</title>
<g id="a_edge8_Node000001_Node000009"><a xlink:title=" ">
<path fill="none" stroke="#63b8ff" d="M88.65,-245.52C109.7,-239.29 136.98,-231.21 161.38,-223.98"/>
<polygon fill="#63b8ff" stroke="#63b8ff" points="162.31,-227.36 170.91,-221.16 160.33,-220.65 162.31,-227.36"/>
</a>
</g>
</g>
<!-- Node10 -->
<g id="Node000010" class="node">
<title>Node10</title>
<g id="a_Node000010"><a xlink:href="group__bh1750fvi__basic__driver.html#ga99933e3e581c51897834ec4fb3296e43" target="_top" xlink:title="power on">
<polygon fill="white" stroke="#666666" points="275.75,-172 170.5,-172 170.5,-152 275.75,-152 275.75,-172"/>
<text xml:space="preserve" text-anchor="middle" x="223.12" y="-158.5" font-family="Helvetica,sans-Serif" font-size="10.00">bh1750fvi_power_on</text>
</a>
</g>
</g>
<!-- Node1&#45;&gt;Node10 -->
<g id="edge9_Node000001_Node000010" class="edge">
<title>Node1&#45;&gt;Node10</title>
<g id="a_edge9_Node000001_Node000010"><a xlink:title=" ">
<path fill="none" stroke="#63b8ff" d="M62.06,-245.75C76.65,-229.44 107.54,-197.71 140.5,-181 146.4,-178.01 152.78,-175.48 159.29,-173.34"/>
<polygon fill="#63b8ff" stroke="#63b8ff" points="160.23,-176.71 168.84,-170.53 158.25,-170 160.23,-176.71"/>
</a>
</g>
</g>
<!-- Node11 -->
<g id="Node000011" class="node">
<title>Node11</title>
<g id="a_Node000011"><a xlink:href="group__bh1750fvi__basic__driver.html#ga712582b3585285c42c51dc8ff16e7278" target="_top" xlink:title="set the address pin">
<polygon fill="white" stroke="#666666" points="282.5,-134 163.75,-134 163.75,-114 282.5,-114 282.5,-134"/>
<text xml:space="preserve" text-anchor="middle" x="223.12" y="-120.5" font-family="Helvetica,sans-Serif" font-size="10.00">bh1750fvi_set_addr_pin</text>
</a>
</g>
</g>
<!-- Node1&#45;&gt;Node11 -->
<g id="edge10_Node000001_Node000011" class="edge">
<title>Node1&#45;&gt;Node11</title>
<g id="a_edge10_Node000001_Node000011"><a xlink:title=" ">
<path fill="none" stroke="#63b8ff" d="M58.13,-245.65C69.3,-223.15 99,-169.66 140.5,-143 144.43,-140.48 148.65,-138.29 153.03,-136.39"/>
<polygon fill="#63b8ff" stroke="#63b8ff" points="153.94,-139.79 162.07,-133 151.48,-133.24 153.94,-139.79"/>
</a>
</g>
</g>
<!-- Node12 -->
<g id="Node000012" class="node">
<title>Node12</title>
<g id="a_Node000012"><a xlink:href="group__bh1750fvi__basic__driver.html#ga588af50cf3ac2196db748ec54ef4646f" target="_top" xlink:title="set the measurement time">
<polygon fill="white" stroke="#666666" points="305.75,-96 140.5,-96 140.5,-76 305.75,-76 305.75,-96"/>
<text xml:space="preserve" text-anchor="middle" x="223.12" y="-82.5" font-family="Helvetica,sans-Serif" font-size="10.00">bh1750fvi_set_measurement_time</text>
</a>
</g>
</g>
<!-- Node1&#45;&gt;Node12 -->
<g id="edge11_Node000001_Node000012" class="edge">
<title>Node1&#45;&gt;Node12</title>
<g id="a_edge11_Node000001_Node000012"><a xlink:title=" ">
<path fill="none" stroke="#63b8ff" d="M56.08,-245.62C64.18,-218.01 90.15,-142.32 140.5,-105 142.25,-103.7 144.08,-102.49 145.97,-101.36"/>
<polygon fill="#63b8ff" stroke="#63b8ff" points="147.16,-104.68 154.49,-97.04 143.99,-98.44 147.16,-104.68"/>
</a>
</g>
</g>
<!-- Node13 -->
<g id="Node000013" class="node">
<title>Node13</title>
<g id="a_Node000013"><a xlink:href="group__bh1750fvi__basic__driver.html#gaf5afae64b65ba3dc98f7098b9e560106" target="_top" xlink:title="set the mode">
<polygon fill="white" stroke="#666666" points="276.12,-58 170.12,-58 170.12,-38 276.12,-38 276.12,-58"/>
<text xml:space="preserve" text-anchor="middle" x="223.12" y="-44.5" font-family="Helvetica,sans-Serif" font-size="10.00">bh1750fvi_set_mode</text>
</a>
</g>
</g>
<!-- Node1&#45;&gt;Node13 -->
<g id="edge12_Node000001_Node000013" class="edge">
<title>Node1&#45;&gt;Node13</title>
<g id="a_edge12_Node000001_Node000013"><a xlink:title=" ">
<path fill="none" stroke="#63b8ff" d="M54.76,-245.91C60.05,-214.17 80.81,-115.61 140.5,-67 145.98,-62.54 152.32,-59.08 158.99,-56.42"/>
<polygon fill="#63b8ff" stroke="#63b8ff" points="159.87,-59.82 168.24,-53.33 157.65,-53.18 159.87,-59.82"/>
</a>
</g>
</g>
<!-- Node14 -->
<g id="Node000014" class="node">
<title>Node14</title>
<g id="a_Node000014"><a xlink:href="group__bh1750fvi__basic__driver.html#ga2a7b0a95ca8571d4a2c0c9bd5f4d9b3f" target="_top" xlink:title="start chip reading">
<polygon fill="white" stroke="#666666" points="302.75,-20 143.5,-20 143.5,0 302.75,0 302.75,-20"/>
<text xml:space="preserve" text-anchor="middle" x="223.12" y="-6.5" font-family="Helvetica,sans-Serif" font-size="10.00">bh1750fvi_start_continuous_read</text>
</a>
</g>
</g>
<!-- Node1&#45;&gt;Node14 -->
<g id="edge13_Node000001_Node000014" class="edge">
<title>Node1&#45;&gt;Node14</title>
<g id="a_edge13_Node000001_Node000014"><a xlink:title=" ">
<path fill="none" stroke="#63b8ff" d="M53.9,-245.99C56.75,-210.43 71.4,-89.15 140.5,-29 141.61,-28.03 142.76,-27.11 143.95,-26.24"/>
<polygon fill="#63b8ff" stroke="#63b8ff" points="145.61,-29.32 152.35,-21.14 141.98,-23.34 145.61,-29.32"/>
</a>
</g>
</g>
</g>
</svg>
